# Blender v2.76 (sub 0) OBJ File: ''
# www.blender.org
mtllib emeraldGem.mtl
o Icosphere
v -0.000000 -1.482072 -0.000001
v 0.301034 -1.104318 0.218711
v -0.114982 -1.104318 0.353885
v 0.813228 -0.334735 0.590838
v 0.956003 -0.478309 -0.000001
v -0.372100 -1.104314 -0.000001
v -0.114982 -1.104318 -0.353886
v 0.301034 -1.104318 -0.218712
v 1.414480 0.241280 0.459585
v -0.310620 -0.334735 0.956005
v 0.295426 -0.478313 0.909210
v -0.000000 0.241279 1.487269
v -1.005205 -0.334727 -0.000001
v -0.773425 -0.478310 0.561923
v -1.414480 0.241280 0.459585
v -0.310620 -0.334735 -0.956006
v -0.773425 -0.478310 -0.561924
v -0.874196 0.241280 -1.203226
v 0.813228 -0.334735 -0.590839
v 0.295426 -0.478313 -0.909212
v 0.874196 0.241280 -1.203226
v 0.874196 0.241279 1.203226
v -0.874196 0.241279 1.203226
v -1.414480 0.241280 -0.459586
v -0.000000 0.241280 -1.487270
v 1.414480 0.241280 -0.459586
v 0.276388 0.595306 0.850650
v 0.688189 0.639805 0.499997
v 0.162455 0.751231 0.499996
v -0.723608 0.595306 0.525726
v -0.262869 0.639806 0.809012
v -0.425323 0.751231 0.309012
v -0.723608 0.595306 -0.525725
v -0.850648 0.639805 -0.000000
v -0.425323 0.751231 -0.309011
v 0.276388 0.595307 -0.850649
v -0.262869 0.639806 -0.809011
v 0.162455 0.751231 -0.499995
v 0.894426 0.595304 -0.000000
v 0.688189 0.639805 -0.499998
v 0.525730 0.751231 -0.000000
v -0.000000 0.742768 -0.000000
vn 0.241700 -0.623200 0.743800
vn 0.708000 -0.627700 0.323600
vn -0.632700 -0.623200 0.459700
vn -0.632700 -0.623200 -0.459700
vn 0.241700 -0.623200 -0.743800
vn 0.690400 -0.646800 0.324000
vn -0.094800 -0.646800 0.756700
vn -0.749000 -0.646800 0.143700
vn -0.368100 -0.646800 -0.667900
vn 0.521500 -0.646800 -0.556500
vn 0.659500 -0.579200 0.479100
vn -0.251900 -0.579200 0.775300
vn -0.815200 -0.579200 -0.000000
vn -0.251900 -0.579200 -0.775300
vn 0.659500 -0.579200 -0.479100
vn 0.194600 0.918200 0.345100
vn -0.268000 0.918200 0.291700
vn -0.360300 0.918200 -0.164800
vn 0.045400 0.918200 -0.393500
vn 0.388300 0.918200 -0.078400
vn -0.016100 0.999800 0.011700
vn 0.205000 0.967400 -0.149000
vn 0.194600 0.918200 -0.345100
vn 0.006100 0.999800 0.018900
vn -0.078300 0.967400 -0.241000
vn -0.268000 0.918200 -0.291700
vn 0.019900 0.999800 0.000000
vn -0.253400 0.967400 0.000000
vn -0.360300 0.918200 0.164800
vn 0.006100 0.999800 -0.018900
vn -0.078300 0.967400 0.241000
vn 0.045400 0.918200 0.393500
vn -0.016100 0.999800 -0.011700
vn 0.205000 0.967400 0.149000
vn 0.388300 0.918200 0.078400
vn 0.482700 0.867300 -0.121900
vn 0.467000 0.816600 -0.339300
vn 0.265100 0.867300 -0.421400
vn 0.033200 0.867300 -0.496700
vn -0.178400 0.816600 -0.548900
vn -0.318800 0.867300 -0.382300
vn -0.462100 0.867300 -0.185100
vn -0.577200 0.816600 0.000000
vn -0.462100 0.867300 0.185100
vn -0.318800 0.867300 0.382300
vn -0.178400 0.816600 0.548900
vn 0.033200 0.867300 0.496700
vn 0.265100 0.867300 0.421400
vn 0.467000 0.816600 0.339300
vn 0.482700 0.867300 0.121900
vn 0.173900 0.826600 -0.535200
vn 0.260600 -0.537300 -0.802100
vn -0.094800 -0.646800 -0.756700
vn -0.455300 0.826600 -0.330800
vn -0.682300 -0.537300 -0.495700
vn -0.749000 -0.646800 -0.143700
vn -0.455300 0.826600 0.330800
vn -0.682300 -0.537300 0.495700
vn -0.368100 -0.646800 0.667900
vn 0.173900 0.826600 0.535200
vn 0.260600 -0.537300 0.802100
vn 0.521500 -0.646800 0.556500
vn 0.562700 0.826600 0.000000
vn 0.843400 -0.537300 -0.000000
vn 0.690400 -0.646800 -0.324000
vn 0.526600 -0.627700 -0.573300
vn 0.213500 -0.722900 -0.657100
vn -0.089000 -0.627700 -0.773400
vn -0.382600 -0.627700 -0.678000
vn -0.559000 -0.722900 -0.406100
vn -0.763000 -0.627700 -0.154300
vn -0.763000 -0.627700 0.154300
vn -0.559000 -0.722900 0.406100
vn -0.382600 -0.627700 0.678000
vn 0.708000 -0.627700 -0.323600
vn 0.690900 -0.722900 0.000000
vn 0.782000 -0.623200 0.000000
vn -0.089000 -0.627700 0.773400
vn 0.213500 -0.722900 0.657100
vn 0.526600 -0.627700 0.573300
usemtl Material.005
s 1
f 1//1 2//1 3//1
f 4//2 2//2 5//2
f 1//3 3//3 6//3
f 1//4 6//4 7//4
f 1//5 7//5 8//5
f 4//6 5//6 9//6
f 10//7 11//7 12//7
f 13//8 14//8 15//8
f 16//9 17//9 18//9
f 19//10 20//10 21//10
f 4//11 9//11 22//11
f 10//12 12//12 23//12
f 13//13 15//13 24//13
f 16//14 18//14 25//14
f 19//15 21//15 26//15
f 27//16 28//16 29//16
f 30//17 31//17 32//17
f 33//18 34//18 35//18
f 36//19 37//19 38//19
f 39//20 40//20 41//20
f 41//21 38//21 42//21
f 41//22 40//22 38//22
f 40//23 36//23 38//23
f 38//24 35//24 42//24
f 38//25 37//25 35//25
f 37//26 33//26 35//26
f 35//27 32//27 42//27
f 35//28 34//28 32//28
f 34//29 30//29 32//29
f 32//30 29//30 42//30
f 32//31 31//31 29//31
f 31//32 27//32 29//32
f 29//33 41//33 42//33
f 29//34 28//34 41//34
f 28//35 39//35 41//35
f 26//36 40//36 39//36
f 26//37 21//37 40//37
f 21//38 36//38 40//38
f 25//39 37//39 36//39
f 25//40 18//40 37//40
f 18//41 33//41 37//41
f 24//42 34//42 33//42
f 24//43 15//43 34//43
f 15//44 30//44 34//44
f 23//45 31//45 30//45
f 23//46 12//46 31//46
f 12//47 27//47 31//47
f 22//48 28//48 27//48
f 22//49 9//49 28//49
f 9//50 39//50 28//50
f 21//51 25//51 36//51
f 21//52 20//52 25//52
f 20//53 16//53 25//53
f 18//54 24//54 33//54
f 18//55 17//55 24//55
f 17//56 13//56 24//56
f 15//57 23//57 30//57
f 15//58 14//58 23//58
f 14//59 10//59 23//59
f 12//60 22//60 27//60
f 12//61 11//61 22//61
f 11//62 4//62 22//62
f 9//63 26//63 39//63
f 9//64 5//64 26//64
f 5//65 19//65 26//65
f 8//66 20//66 19//66
f 8//67 7//67 20//67
f 7//68 16//68 20//68
f 7//69 17//69 16//69
f 7//70 6//70 17//70
f 6//71 13//71 17//71
f 6//72 14//72 13//72
f 6//73 3//73 14//73
f 3//74 10//74 14//74
f 5//75 8//75 19//75
f 5//76 2//76 8//76
f 2//77 1//77 8//77
f 3//78 11//78 10//78
f 3//79 2//79 11//79
f 2//80 4//80 11//80
