# Blender v2.76 (sub 0) OBJ File: 'archway1.blend'
# www.blender.org
mtllib windowframe1.mtl
o Cube_Cube.001
v -4.743738 0.135439 0.878743
v -4.743738 0.135439 -0.878743
v -3.265488 5.562471 -0.878743
v -3.929383 0.131359 -0.878743
v -3.265488 5.562471 0.878743
v -3.929383 0.131359 0.878743
v -4.743738 4.076499 0.878743
v -4.743738 4.076499 -0.878743
v -3.715385 4.361578 0.878743
v -3.715385 4.361578 -0.878743
v 0.000000 5.562471 -0.878743
v 0.000000 4.798049 -0.878743
v -3.867939 3.462262 0.878738
v -2.459146 4.828731 0.878738
v -2.460901 4.828704 -0.878749
v -3.867989 3.458696 -0.878749
v 4.743738 0.135439 0.878743
v 4.743738 0.135439 -0.878743
v 3.265488 5.562471 -0.878743
v 3.929383 0.131359 -0.878743
v 3.265488 5.562471 0.878743
v 3.929383 0.131359 0.878743
v 4.743738 4.076499 0.878743
v 4.743738 4.076499 -0.878743
v 3.715385 4.361578 0.878743
v 3.715385 4.361578 -0.878743
v 0.000000 5.562471 0.878743
v 0.000000 4.798049 0.878743
v 3.867939 3.462262 0.878738
v 2.459146 4.828731 0.878738
v 2.460901 4.828704 -0.878749
v 3.867989 3.458696 -0.878749
v -3.265488 -5.562471 -0.878743
v -3.265488 -5.562471 0.878743
v -4.743738 -4.076499 0.878743
v -4.743738 -4.076499 -0.878743
v -3.715385 -4.361578 0.878743
v -3.715385 -4.361578 -0.878743
v 0.000000 -5.562471 -0.878743
v 0.000000 -4.798049 -0.878743
v -3.867939 -3.462262 0.878738
v -2.459146 -4.828731 0.878738
v -2.460901 -4.828704 -0.878749
v -3.867989 -3.458696 -0.878749
v 3.265488 -5.562471 -0.878743
v 3.265488 -5.562471 0.878743
v 4.743738 -4.076499 0.878743
v 4.743738 -4.076499 -0.878743
v 3.715385 -4.361578 0.878743
v 3.715385 -4.361578 -0.878743
v 0.000000 -5.562471 0.878743
v 0.000000 -4.798049 0.878743
v 3.867939 -3.462262 0.878738
v 2.459146 -4.828731 0.878738
v 2.460901 -4.828704 -0.878749
v 3.867989 -3.458696 -0.878749
vt 0.605433 0.186654
vt 0.605433 0.000086
vt 0.762780 0.000086
vt 0.762780 0.186654
vt 0.577704 0.688401
vt 0.502326 0.688401
vt 0.502326 0.280396
vt 0.577704 0.280396
vt 0.577704 0.627660
vt 0.500000 0.186654
vt 0.500000 0.000086
vt 0.564215 0.000086
vt 0.564215 0.186654
vt 0.791850 0.186654
vt 0.791850 0.000086
vt 0.958320 0.000082
vt 0.958362 0.186651
vt 0.925772 0.186655
vt 0.925705 0.000086
vt 0.018137 0.356167
vt 0.093515 0.356167
vt 0.093515 0.417079
vt 0.093517 0.764183
vt 0.018137 0.764183
vt 0.093515 0.280396
vt 0.744215 0.764172
vt 0.577704 0.764172
vt 0.636456 0.688401
vt 0.744215 0.688401
vt 0.260023 0.280396
vt 0.260023 0.356166
vt 0.152179 0.356167
vt 0.999911 0.000081
vt 0.999920 0.186649
vt 0.394567 0.186654
vt 0.237220 0.186655
vt 0.237220 0.000086
vt 0.394567 0.000086
vt 0.910725 0.688401
vt 0.910725 0.627660
vt 0.910725 0.280396
vt 0.986103 0.280396
vt 0.986103 0.688401
vt 0.426531 0.280396
vt 0.426531 0.356166
vt 0.367867 0.356166
vt 0.208150 0.000086
vt 0.208150 0.186655
vt 0.041680 0.000083
vt 0.074295 0.000086
vt 0.074228 0.186655
vt 0.041638 0.186651
vt 0.501908 0.356166
vt 0.501909 0.764166
vt 0.426532 0.764166
vt 0.426532 0.417081
vt 0.851974 0.688401
vt 0.910725 0.764172
vt 0.000081 0.186649
vt 0.000089 0.000081
vt 0.435785 0.186654
vt 0.435785 0.000086
vn -1.000000 0.000000 0.000000
vn 0.000000 -0.000000 1.000000
vn 0.000000 1.000000 0.000000
vn -0.005000 -1.000000 0.000000
vn 0.696900 -0.717100 0.000400
vn -0.000000 0.000000 -1.000000
vn -0.012500 -0.999900 0.000000
vn 0.999800 -0.018400 0.000000
vn -0.708900 0.705300 0.000000
vn 1.000000 0.000000 0.000000
vn 0.005000 -1.000000 0.000000
vn -0.696900 -0.717100 0.000400
vn 0.012500 -0.999900 0.000000
vn -0.999800 -0.018400 0.000000
vn 0.708900 0.705300 0.000000
vn 0.000000 -1.000000 0.000000
vn 0.696900 0.717100 0.000400
vn -0.012500 0.999900 0.000000
vn -0.708900 -0.705300 0.000000
vn -0.696900 0.717100 0.000400
vn 0.012500 0.999900 0.000000
vn 0.708900 -0.705300 0.000000
vn -0.999900 0.017100 0.000000
vn 0.999900 0.017100 0.000000
usemtl None
s off
f 7/1/1 8/2/1 2/3/1 1/4/1
f 9/5/2 7/6/2 1/7/2 6/8/2 13/9/2
f 27/10/3 11/11/3 3/12/3 5/13/3
f 1/4/4 2/14/4 4/15/4 6/3/4
f 15/16/5 14/17/5 13/18/5 16/19/5
f 8/20/6 10/21/6 16/22/6 4/23/6 2/24/6
f 3/25/6 10/21/6 8/20/6
f 27/26/2 5/27/2 9/5/2 14/28/2 28/29/2
f 9/5/2 5/27/2 7/6/2
f 3/25/6 11/30/6 12/31/6 15/32/6 10/21/6
f 14/17/7 15/16/7 12/33/7 28/34/7
f 14/28/2 9/5/2 13/9/2
f 10/21/6 15/32/6 16/22/6
f 4/15/8 16/19/8 13/18/8 6/14/8
f 5/13/9 3/12/9 8/2/9 7/1/9
f 23/35/10 17/36/10 18/37/10 24/38/10
f 25/39/2 29/40/2 22/41/2 17/42/2 23/43/2
f 19/44/6 26/45/6 31/46/6 12/31/6 11/30/6
f 17/36/11 22/37/11 20/47/11 18/48/11
f 31/49/12 32/50/12 29/51/12 30/52/12
f 24/53/6 18/54/6 20/55/6 32/56/6 26/45/6
f 19/44/6 24/53/6 26/45/6
f 27/26/2 28/29/2 30/57/2 25/39/2 21/58/2
f 25/39/2 23/43/2 21/58/2
f 30/52/13 28/59/13 12/60/13 31/49/13
f 30/57/2 29/40/2 25/39/2
f 26/45/6 32/56/6 31/46/6
f 20/47/14 22/48/14 29/51/14 32/50/14
f 21/61/15 23/35/15 24/38/15 19/62/15
f 27/10/3 21/61/3 19/62/3 11/11/3
f 36/20/6 2/24/6 4/23/6 44/22/6 38/21/6
f 51/10/16 34/13/16 33/12/16 39/11/16
f 37/5/2 41/9/2 6/8/2 1/7/2 35/6/2
f 43/16/17 44/19/17 41/18/17 42/17/17
f 33/25/6 36/20/6 38/21/6
f 51/26/2 52/29/2 42/28/2 37/5/2 34/27/2
f 37/5/2 35/6/2 34/27/2
f 33/25/6 38/21/6 43/32/6 40/31/6 39/30/6
f 42/17/18 52/34/18 40/33/18 43/16/18
f 42/28/2 41/9/2 37/5/2
f 38/21/6 44/22/6 43/32/6
f 35/1/1 1/4/1 2/3/1 36/2/1
f 34/13/19 35/1/19 36/2/19 33/12/19
f 45/44/6 39/30/6 40/31/6 55/46/6 50/45/6
f 55/49/20 54/52/20 53/51/20 56/50/20
f 45/44/6 50/45/6 48/53/6
f 51/26/2 46/58/2 49/39/2 54/57/2 52/29/2
f 49/39/2 46/58/2 47/43/2
f 54/52/21 55/49/21 40/60/21 52/59/21
f 54/57/2 49/39/2 53/40/2
f 50/45/6 55/46/6 56/56/6
f 46/61/22 45/62/22 48/38/22 47/35/22
f 51/10/16 39/11/16 45/62/16 46/61/16
f 49/39/2 47/43/2 17/42/2 22/41/2 53/40/2
f 20/47/23 56/50/23 53/51/23 22/48/23
f 47/35/10 48/38/10 18/37/10 17/36/10
f 48/53/6 50/45/6 56/56/6 20/55/6 18/54/6
f 4/15/24 6/14/24 41/18/24 44/19/24
